<svg
  version="1.1"
  id="Layer_1"
  xmlns="http://www.w3.org/2000/svg"
  xmlns:xlink="http://www.w3.org/1999/xlink"
  viewBox="0 0 64 64"
  xml:space="preserve"
  width="100"
  height="100"
>
  <g id="SVGRepo_bgCarrier" stroke-width="0"></g>
  <g
    id="SVGRepo_tracerCarrier"
    stroke-linecap="round"
    stroke-linejoin="round"
  ></g>
  <g id="SVGRepo_iconCarrier">
    <g>
      <path
        style="fill:#009688;"
        d="M32,4c-1.1,0-2,0.9-2,2v4H12c-2.2,0-4,1.8-4,4v48c0,2.2,1.8,4,4,4h28c1.1,0,2-0.9,2-2V6c0-1.1-0.9-2-2-2H32z"
      ></path>
      <path
        style="fill:#00796B;"
        d="M44,48H12c-1.1,0-2,0.9-2,2v4c0,1.1,0.9,2,2,2h32c1.1,0,2-0.9,2-2v-4C46,48.9,45.1,48,44,48z"
      ></path>
      <path
        style="fill:#004D40;"
        d="M12,6v4h28v-4c0-1.1-0.9-2-2-2H14C12.9,4,12,4.9,12,6z"
      ></path>
    </g>
  </g>
</svg>
